<svg width="120" height="25" viewBox="0 0 120 25" fill="none" xmlns="http://www.w3.org/2000/svg">
<path d="M7.33 24.27C6.19 24.27 5.05 24.23 3.91 24.15C2.79 24.09 1.62 23.93 0.4 23.67V3.51C1.36 3.33 2.41 3.2 3.55 3.12C4.69 3.02 5.75 2.97 6.73 2.97C8.05 2.97 9.26 3.07 10.36 3.27C11.48 3.45 12.44 3.77 13.24 4.23C14.04 4.69 14.66 5.3 15.1 6.06C15.56 6.8 15.79 7.72 15.79 8.82C15.79 10.48 14.99 11.79 13.39 12.75C14.71 13.25 15.61 13.93 16.09 14.79C16.57 15.65 16.81 16.62 16.81 17.7C16.81 19.88 16.01 21.52 14.41 22.62C12.83 23.72 10.47 24.27 7.33 24.27ZM4.96 14.94V20.31C5.3 20.35 5.67 20.38 6.07 20.4C6.47 20.42 6.91 20.43 7.39 20.43C8.79 20.43 9.92 20.23 10.78 19.83C11.64 19.43 12.07 18.69 12.07 17.61C12.07 16.65 11.71 15.97 10.99 15.57C10.27 15.15 9.24 14.94 7.9 14.94H4.96ZM4.96 11.37H7.24C8.68 11.37 9.71 11.19 10.33 10.83C10.95 10.45 11.26 9.85 11.26 9.03C11.26 8.19 10.94 7.6 10.3 7.26C9.66 6.92 8.72 6.75 7.48 6.75C7.08 6.75 6.65 6.76 6.19 6.78C5.73 6.78 5.32 6.8 4.96 6.84V11.37ZM35.0163 16.08C35.0163 17.32 34.8363 18.46 34.4763 19.5C34.1163 20.52 33.5963 21.4 32.9163 22.14C32.2363 22.86 31.4163 23.42 30.4563 23.82C29.5163 24.22 28.4563 24.42 27.2763 24.42C26.1163 24.42 25.0563 24.22 24.0963 23.82C23.1563 23.42 22.3463 22.86 21.6663 22.14C20.9863 21.4 20.4563 20.52 20.0763 19.5C19.6963 18.46 19.5063 17.32 19.5063 16.08C19.5063 14.84 19.6963 13.71 20.0763 12.69C20.4763 11.67 21.0163 10.8 21.6963 10.08C22.3963 9.36 23.2163 8.8 24.1563 8.4C25.1163 8 26.1563 7.8 27.2763 7.8C28.4163 7.8 29.4563 8 30.3963 8.4C31.3563 8.8 32.1763 9.36 32.8563 10.08C33.5363 10.8 34.0663 11.67 34.4463 12.69C34.8263 13.71 35.0163 14.84 35.0163 16.08ZM30.4563 16.08C30.4563 14.7 30.1763 13.62 29.6163 12.84C29.0763 12.04 28.2963 11.64 27.2763 11.64C26.2563 11.64 25.4663 12.04 24.9063 12.84C24.3463 13.62 24.0663 14.7 24.0663 16.08C24.0663 17.46 24.3463 18.56 24.9063 19.38C25.4663 20.18 26.2563 20.58 27.2763 20.58C28.2963 20.58 29.0763 20.18 29.6163 19.38C30.1763 18.56 30.4563 17.46 30.4563 16.08ZM44.7789 24.3C43.4789 24.28 42.4189 24.14 41.5989 23.88C40.7989 23.62 40.1589 23.26 39.6789 22.8C39.2189 22.32 38.8989 21.75 38.7189 21.09C38.5589 20.41 38.4789 19.65 38.4789 18.81V1.44L42.9489 0.719999V17.91C42.9489 18.31 42.9789 18.67 43.0389 18.99C43.0989 19.31 43.2089 19.58 43.3689 19.8C43.5489 20.02 43.7989 20.2 44.1189 20.34C44.4389 20.48 44.8689 20.57 45.4089 20.61L44.7789 24.3ZM53.9411 20.43C54.6011 20.43 55.1411 20.38 55.5611 20.28C56.0011 20.16 56.3511 20.01 56.6111 19.83C56.8711 19.63 57.0511 19.4 57.1511 19.14C57.2511 18.88 57.3011 18.59 57.3011 18.27C57.3011 17.59 56.9811 17.03 56.3411 16.59C55.7011 16.13 54.6011 15.64 53.0411 15.12C52.3611 14.88 51.6811 14.61 51.0011 14.31C50.3211 13.99 49.7111 13.6 49.1711 13.14C48.6311 12.66 48.1911 12.09 47.8511 11.43C47.5111 10.75 47.3411 9.93 47.3411 8.97C47.3411 8.01 47.5211 7.15 47.8811 6.39C48.2411 5.61 48.7511 4.95 49.4111 4.41C50.0711 3.87 50.8711 3.46 51.8111 3.18C52.7511 2.88 53.8111 2.73 54.9911 2.73C56.3911 2.73 57.6011 2.88 58.6211 3.18C59.6411 3.48 60.4811 3.81 61.1411 4.17L59.7911 7.86C59.2111 7.56 58.5611 7.3 57.8411 7.08C57.1411 6.84 56.2911 6.72 55.2911 6.72C54.1711 6.72 53.3611 6.88 52.8611 7.2C52.3811 7.5 52.1411 7.97 52.1411 8.61C52.1411 8.99 52.2311 9.31 52.4111 9.57C52.5911 9.83 52.8411 10.07 53.1611 10.29C53.5011 10.49 53.8811 10.68 54.3011 10.86C54.7411 11.02 55.2211 11.19 55.7411 11.37C56.8211 11.77 57.7611 12.17 58.5611 12.57C59.3611 12.95 60.0211 13.4 60.5411 13.92C61.0811 14.44 61.4811 15.05 61.7411 15.75C62.0011 16.45 62.1311 17.3 62.1311 18.3C62.1311 20.24 61.4511 21.75 60.0911 22.83C58.7311 23.89 56.6811 24.42 53.9411 24.42C53.0211 24.42 52.1911 24.36 51.4511 24.24C50.7111 24.14 50.0511 24.01 49.4711 23.85C48.9111 23.69 48.4211 23.52 48.0011 23.34C47.6011 23.16 47.2611 22.99 46.9811 22.83L48.3011 19.11C48.9211 19.45 49.6811 19.76 50.5811 20.04C51.5011 20.3 52.6211 20.43 53.9411 20.43ZM65.282 4.29L69.752 3.57V8.22H75.122V11.94H69.752V17.49C69.752 18.43 69.912 19.18 70.232 19.74C70.572 20.3 71.242 20.58 72.242 20.58C72.722 20.58 73.212 20.54 73.712 20.46C74.232 20.36 74.702 20.23 75.122 20.07L75.752 23.55C75.212 23.77 74.612 23.96 73.952 24.12C73.292 24.28 72.482 24.36 71.522 24.36C70.302 24.36 69.292 24.2 68.492 23.88C67.692 23.54 67.052 23.08 66.572 22.5C66.092 21.9 65.752 21.18 65.552 20.34C65.372 19.5 65.282 18.57 65.282 17.55V4.29ZM84.2062 20.88C84.6462 20.88 85.0662 20.87 85.4662 20.85C85.8662 20.83 86.1862 20.8 86.4262 20.76V17.37C86.2462 17.33 85.9762 17.29 85.6162 17.25C85.2562 17.21 84.9262 17.19 84.6262 17.19C84.2062 17.19 83.8062 17.22 83.4262 17.28C83.0662 17.32 82.7462 17.41 82.4662 17.55C82.1862 17.69 81.9662 17.88 81.8062 18.12C81.6462 18.36 81.5662 18.66 81.5662 19.02C81.5662 19.72 81.7962 20.21 82.2562 20.49C82.7362 20.75 83.3862 20.88 84.2062 20.88ZM83.8462 7.8C85.1662 7.8 86.2662 7.95 87.1462 8.25C88.0262 8.55 88.7262 8.98 89.2462 9.54C89.7862 10.1 90.1662 10.78 90.3862 11.58C90.6062 12.38 90.7162 13.27 90.7162 14.25V23.55C90.0762 23.69 89.1862 23.85 88.0462 24.03C86.9062 24.23 85.5262 24.33 83.9062 24.33C82.8862 24.33 81.9562 24.24 81.1162 24.06C80.2962 23.88 79.5862 23.59 78.9862 23.19C78.3862 22.77 77.9262 22.23 77.6062 21.57C77.2862 20.91 77.1262 20.1 77.1262 19.14C77.1262 18.22 77.3062 17.44 77.6662 16.8C78.0462 16.16 78.5462 15.65 79.1662 15.27C79.7862 14.89 80.4962 14.62 81.2962 14.46C82.0962 14.28 82.9262 14.19 83.7862 14.19C84.3662 14.19 84.8762 14.22 85.3162 14.28C85.7762 14.32 86.1462 14.38 86.4262 14.46V14.04C86.4262 13.28 86.1962 12.67 85.7362 12.21C85.2762 11.75 84.4762 11.52 83.3362 11.52C82.5762 11.52 81.8262 11.58 81.0862 11.7C80.3462 11.8 79.7062 11.95 79.1662 12.15L78.5962 8.55C78.8562 8.47 79.1762 8.39 79.5562 8.31C79.9562 8.21 80.3862 8.13 80.8462 8.07C81.3062 7.99 81.7862 7.93 82.2862 7.89C82.8062 7.83 83.3262 7.8 83.8462 7.8ZM94.6082 4.29L99.0782 3.57V8.22H104.448V11.94H99.0782V17.49C99.0782 18.43 99.2382 19.18 99.5582 19.74C99.8982 20.3 100.568 20.58 101.568 20.58C102.048 20.58 102.538 20.54 103.038 20.46C103.558 20.36 104.028 20.23 104.448 20.07L105.078 23.55C104.538 23.77 103.938 23.96 103.278 24.12C102.618 24.28 101.808 24.36 100.848 24.36C99.6282 24.36 98.6182 24.2 97.8182 23.88C97.0182 23.54 96.3782 23.08 95.8982 22.5C95.4182 21.9 95.0782 21.18 94.8782 20.34C94.6982 19.5 94.6082 18.57 94.6082 17.55V4.29ZM112.618 20.79C113.438 20.79 114.018 20.71 114.358 20.55C114.698 20.39 114.868 20.08 114.868 19.62C114.868 19.26 114.648 18.95 114.208 18.69C113.768 18.41 113.098 18.1 112.198 17.76C111.498 17.5 110.858 17.23 110.278 16.95C109.718 16.67 109.238 16.34 108.838 15.96C108.438 15.56 108.128 15.09 107.908 14.55C107.688 14.01 107.578 13.36 107.578 12.6C107.578 11.12 108.128 9.95 109.228 9.09C110.328 8.23 111.838 7.8 113.758 7.8C114.718 7.8 115.638 7.89 116.518 8.07C117.398 8.23 118.098 8.41 118.618 8.61L117.838 12.09C117.318 11.91 116.748 11.75 116.128 11.61C115.528 11.47 114.848 11.4 114.088 11.4C112.688 11.4 111.988 11.79 111.988 12.57C111.988 12.75 112.018 12.91 112.078 13.05C112.138 13.19 112.258 13.33 112.438 13.47C112.618 13.59 112.858 13.73 113.158 13.89C113.478 14.03 113.878 14.19 114.358 14.37C115.338 14.73 116.148 15.09 116.788 15.45C117.428 15.79 117.928 16.17 118.288 16.59C118.668 16.99 118.928 17.44 119.068 17.94C119.228 18.44 119.308 19.02 119.308 19.68C119.308 21.24 118.718 22.42 117.538 23.22C116.378 24.02 114.728 24.42 112.588 24.42C111.188 24.42 110.018 24.3 109.078 24.06C108.158 23.82 107.518 23.62 107.158 23.46L107.908 19.83C108.668 20.13 109.448 20.37 110.248 20.55C111.048 20.71 111.838 20.79 112.618 20.79Z" fill="black"/>
</svg>
