<svg width="35" height="42" viewBox="0 0 35 42" fill="none" xmlns="http://www.w3.org/2000/svg">
<path d="M34.9992 30.0802C34.9992 31.1785 34.8417 32.2388 34.5482 33.241C33.1838 37.8881 28.889 41.2793 23.8033 41.2793H0C0 39.0585 0.900242 37.0517 2.35505 35.5968C3.8082 34.142 5.81924 33.241 8.03752 33.241H17.6094V35.5305L20.3027 33.241L25.6726 28.6784L20.3027 24.1159L17.6094 21.8263V24.1159H8.03752C3.59848 24.1159 0 20.5157 0 16.0775H21.6771C21.6978 16.0775 21.7194 16.0701 21.7368 16.0543C25.7423 12.5188 23.2869 8.03752 19.7821 8.03752H8.03752C3.59848 8.03752 0 4.43904 0 0H22.8053C27.7152 0 31.8226 3.43683 32.8514 8.03752C33.0155 8.76451 33.1017 9.52134 33.1017 10.2948C33.1017 12.4368 32.446 14.4279 31.3261 16.0775C30.3454 17.5191 29.0092 18.6987 27.4441 19.4895C29.8763 20.3259 31.9312 21.9763 33.2791 24.1159C34.37 25.8426 35 27.8876 35 30.0802H34.9992Z" fill="#3051A3"/>
</svg>
