<svg width="400" height="400" viewBox="0 0 400 400" fill="none" xmlns="http://www.w3.org/2000/svg">
<g clip-path="url(#clip0_22_6)">
<mask id="mask0_22_6" style="mask-type:alpha" maskUnits="userSpaceOnUse" x="0" y="0" width="400" height="400">
<path d="M400 0H0V400H400V0Z" fill="white"/>
</mask>
<g mask="url(#mask0_22_6)">
<path d="M237.917 149.375C228.222 149.391 212.332 158.535 212.332 158.535L62.5452 245.286C62.5452 245.286 52.34 249.936 52.2917 259.583C52.2435 269.206 62.3996 274.399 62.3996 274.399L137.321 317.24C137.321 317.24 153.089 325.768 162.917 325.833C172.469 325.897 187.751 317.574 187.751 317.574L337.895 231.108C337.895 231.108 347.703 226.66 347.708 216.875C347.713 207.095 337.91 201.81 337.91 201.81L262.656 158.452C262.656 158.452 247.594 149.359 237.917 149.375Z" fill="#4B4B4B"/>
<path d="M52.396 249.036L52.2918 259.167L70.2085 248.75L52.396 249.036Z" fill="#4B4B4B"/>
<path d="M347.812 205.521L341.146 206.667L336.667 207.083L341.25 218.021L347.708 216.667L347.812 205.521Z" fill="#4B4B4B"/>
<path d="M237.917 138.542C228.222 138.558 212.332 147.702 212.332 147.702L62.5452 234.453C62.5452 234.453 52.34 239.103 52.2917 248.75C52.2435 258.373 62.3996 263.566 62.3996 263.566L137.321 306.406C137.321 306.406 153.089 314.935 162.917 315C172.469 315.063 187.751 306.74 187.751 306.74L337.895 220.275C337.895 220.275 347.703 215.827 347.708 206.042C347.713 196.261 337.91 190.977 337.91 190.977L262.656 147.619C262.656 147.619 247.594 138.526 237.917 138.542Z" fill="#3C3C3C"/>
<path d="M277.396 158.646L275.208 160.104L300.312 174.583L302.604 173.333L277.396 158.646Z" fill="#363636"/>
<path d="M233.271 144.281C224.061 144.296 208.965 152.983 208.965 152.983L66.6679 235.397C66.6679 235.397 55.8272 239.918 55.7813 249.083C55.7356 258.225 66.5296 263.054 66.5296 263.054L137.705 303.753C137.705 303.753 152.685 311.855 162.021 311.917C171.096 311.977 185.613 304.07 185.613 304.07L328.25 221.928C328.25 221.928 337.568 217.702 337.573 208.406C337.578 199.115 328.264 194.095 328.264 194.095L256.773 152.904C256.773 152.904 242.464 144.266 233.271 144.281Z" fill="#D9D9D9"/>
<path d="M233.063 146.365C223.852 146.38 208.757 155.067 208.757 155.067L66.4596 237.48C66.4596 237.48 55.6189 242.002 55.573 251.167C55.5273 260.308 66.3213 265.138 66.3213 265.138L137.497 305.836C137.497 305.836 152.476 313.938 161.813 314C170.887 314.06 185.405 306.153 185.405 306.153L328.042 224.011C328.042 224.011 337.36 219.785 337.365 210.49C337.369 201.198 328.056 196.178 328.056 196.178L256.565 154.988C256.565 154.988 242.256 146.349 233.063 146.365Z" fill="#F8F8F8"/>
<g opacity="0.5">
<path d="M233.271 144.281C224.061 144.296 208.965 152.983 208.965 152.983L66.6679 235.397C66.6679 235.397 55.8272 239.918 55.7813 249.083C55.7356 258.225 66.5296 263.054 66.5296 263.054L137.705 303.753C137.705 303.753 152.685 311.855 162.021 311.917C171.096 311.977 185.613 304.07 185.613 304.07L328.25 221.928C328.25 221.928 337.568 217.702 337.573 208.406C337.578 199.115 328.264 194.095 328.264 194.095L256.773 152.904C256.773 152.904 242.464 144.266 233.271 144.281Z" fill="url(#paint0_linear_22_6)"/>
</g>
<g opacity="0.7">
<path d="M233.271 144.281C224.061 144.296 208.965 152.983 208.965 152.983L66.6679 235.397C66.6679 235.397 55.8272 239.918 55.7813 249.083C55.7356 258.225 66.5296 263.054 66.5296 263.054L137.705 303.753C137.705 303.753 152.685 311.855 162.021 311.917C171.096 311.977 185.613 304.07 185.613 304.07L328.25 221.928C328.25 221.928 337.568 217.702 337.573 208.406C337.578 199.115 328.264 194.095 328.264 194.095L256.773 152.904C256.773 152.904 242.464 144.266 233.271 144.281Z" fill="url(#paint1_linear_22_6)"/>
</g>
<g opacity="0.7">
<path d="M233.271 144.281C224.061 144.296 208.965 152.983 208.965 152.983L66.6679 235.397C66.6679 235.397 55.8272 239.918 55.7813 249.083C55.7356 258.225 66.5296 263.054 66.5296 263.054L137.705 303.753C137.705 303.753 152.685 311.855 162.021 311.917C171.096 311.977 185.613 304.07 185.613 304.07L328.25 221.928C328.25 221.928 337.568 217.702 337.573 208.406C337.578 199.115 328.264 194.095 328.264 194.095L256.773 152.904C256.773 152.904 242.464 144.266 233.271 144.281Z" fill="url(#paint2_linear_22_6)"/>
<path d="M233.271 144.281C224.061 144.296 208.965 152.983 208.965 152.983L328.25 221.928C328.25 221.928 337.568 217.702 337.573 208.406C337.578 199.115 328.264 194.095 328.264 194.095L256.773 152.904C256.773 152.904 242.464 144.266 233.271 144.281Z" fill="url(#paint3_linear_22_6)"/>
<path d="M310.312 202.083L308.958 202.813L321.458 210.104L322.708 209.375L310.312 202.083Z" fill="#F6F6F6"/>
<path d="M313.75 200L312.396 200.729L324.896 208.021L326.146 207.292L313.75 200Z" fill="#F6F6F6"/>
<path d="M317.24 197.656L315.885 198.386L328.385 205.677L329.635 204.948L317.24 197.656Z" fill="#F6F6F6"/>
</g>
<path d="M214.332 156.311L170.37 182.082C170.37 182.082 160.899 186.032 160.859 194.039C160.819 202.026 170.249 206.246 170.249 206.246L232.435 241.803C232.435 241.803 245.522 248.882 253.679 248.936C261.607 248.988 274.291 242.08 274.291 242.08L318.55 216.546L214.332 156.311Z" fill="url(#paint4_linear_22_6)"/>
<path d="M214.167 163.958L201.458 171.25L239.167 192.917L251.667 185.833L214.167 163.958Z" fill="url(#paint5_linear_22_6)"/>
<path d="M192.396 177.135L179.688 184.427L266.771 235.26L279.271 228.177L192.396 177.135Z" fill="url(#paint6_linear_22_6)"/>
<path d="M112.04 237.031L92.1201 248.355L161.3 287.881L181.516 276.656L112.04 237.031Z" fill="url(#paint7_linear_22_6)"/>
<path d="M112.04 237.031L92.1201 248.355L161.3 287.881L181.516 276.656L112.04 237.031Z" fill="url(#paint8_linear_22_6)"/>
</g>
</g>
<defs>
<linearGradient id="paint0_linear_22_6" x1="55" y1="248.885" x2="338.125" y2="205.552" gradientUnits="userSpaceOnUse">
<stop stop-color="#E8E8E8"/>
<stop offset="0.06" stop-color="#E1E1E1"/>
<stop offset="0.11" stop-color="#DADADA"/>
<stop offset="0.21" stop-color="#EAEAEA"/>
<stop offset="0.31" stop-color="#F9F9F9"/>
<stop offset="0.41" stop-color="#E4E4E4"/>
<stop offset="0.51" stop-color="#D0D0D0"/>
<stop offset="0.59" stop-color="#D7D7D7"/>
<stop offset="0.67" stop-color="#DEDEDE"/>
<stop offset="0.76" stop-color="#E2E2E2"/>
<stop offset="0.86" stop-color="#E6E6E6"/>
<stop offset="0.92" stop-color="#DEDEDE"/>
<stop offset="0.99" stop-color="#D6D6D6"/>
</linearGradient>
<linearGradient id="paint1_linear_22_6" x1="75.4167" y1="303.469" x2="337.708" y2="247.635" gradientUnits="userSpaceOnUse">
<stop stop-color="#79A4FC"/>
<stop offset="0.5" stop-color="#3C6BC5"/>
<stop offset="0.99" stop-color="#00328D"/>
</linearGradient>
<linearGradient id="paint2_linear_22_6" x1="75.4167" y1="303.469" x2="337.708" y2="247.635" gradientUnits="userSpaceOnUse">
<stop stop-color="#79A4FC"/>
<stop offset="0.5" stop-color="#3C6BC5"/>
<stop offset="0.99" stop-color="#00328D"/>
</linearGradient>
<linearGradient id="paint3_linear_22_6" x1="186.25" y1="121.802" x2="358.542" y2="232.635" gradientUnits="userSpaceOnUse">
<stop stop-color="#000B98"/>
<stop offset="0.5" stop-color="#20057E"/>
<stop offset="0.99" stop-color="#400065"/>
</linearGradient>
<linearGradient id="paint4_linear_22_6" x1="186.894" y1="215.614" x2="286.054" y2="176.417" gradientUnits="userSpaceOnUse">
<stop stop-color="white"/>
<stop offset="0.5" stop-color="#F5F5F5"/>
<stop offset="0.99" stop-color="#EAEAEA"/>
</linearGradient>
<linearGradient id="paint5_linear_22_6" x1="324.583" y1="300.833" x2="360" y2="295.833" gradientUnits="userSpaceOnUse">
<stop stop-color="#416CBE"/>
<stop offset="0.5" stop-color="#95ABD4"/>
<stop offset="0.99" stop-color="#EAEAEA"/>
</linearGradient>
<linearGradient id="paint6_linear_22_6" x1="302.813" y1="314.01" x2="338.229" y2="309.01" gradientUnits="userSpaceOnUse">
<stop stop-color="#416CBE"/>
<stop offset="0.5" stop-color="#95ABD4"/>
<stop offset="0.99" stop-color="#EAEAEA"/>
</linearGradient>
<linearGradient id="paint7_linear_22_6" x1="107.292" y1="261.875" x2="118.333" y2="261.875" gradientUnits="userSpaceOnUse">
<stop stop-color="white"/>
<stop offset="0.5" stop-color="#F5F5F5"/>
<stop offset="0.99" stop-color="#EAEAEA"/>
</linearGradient>
<linearGradient id="paint8_linear_22_6" x1="110.208" y1="254.375" x2="171.25" y2="275.625" gradientUnits="userSpaceOnUse">
<stop stop-color="#292E9E"/>
<stop offset="0.5" stop-color="#32288F"/>
<stop offset="0.99" stop-color="#3C2280"/>
</linearGradient>
<clipPath id="clip0_22_6">
<rect width="400" height="400" fill="white"/>
</clipPath>
</defs>
</svg>
